<?xml version="1.0" standalone="no"?>
<!DOCTYPE svg PUBLIC "-//W3C//DTD SVG 20010904//EN"
 "http://www.w3.org/TR/2001/REC-SVG-20010904/DTD/svg10.dtd">
<svg version="1.0" xmlns="http://www.w3.org/2000/svg"
 width="240.000000pt" height="240.000000pt" viewBox="0 0 240.000000 240.000000"
 preserveAspectRatio="xMidYMid meet">
<metadata>
Created by potrace 1.14, written by Peter Selinger 2001-2017
</metadata>
<g transform="translate(0.000000,240.000000) scale(0.100000,-0.100000)"
fill="#000000" stroke="none">
<path d="M1145 2293 c-232 -22 -391 -77 -563 -196 -102 -70 -282 -252 -282
-284 0 -7 -4 -13 -9 -13 -13 0 -105 -186 -129 -260 -53 -165 -68 -379 -38
-527 3 -15 8 -43 11 -62 3 -19 8 -38 11 -43 3 -5 8 -20 10 -35 3 -15 8 -31 12
-37 4 -6 7 -13 8 -16 3 -16 28 -73 56 -125 99 -191 262 -356 449 -459 64 -35
229 -101 229 -91 0 2 10 1 23 -4 13 -5 48 -12 78 -16 30 -4 57 -9 62 -12 11
-7 218 -7 252 1 17 3 50 8 74 11 126 15 278 77 424 173 124 81 270 242 335
367 35 70 83 176 87 193 1 10 9 37 16 62 28 102 38 237 29 395 -1 22 -11 76
-21 120 -11 44 -22 90 -24 103 -3 12 -24 61 -45 108 -128 272 -324 455 -625
584 -24 10 -141 41 -170 45 -117 15 -214 22 -260 18z"/>
</g>
</svg>
